<svg width="38" height="39" viewBox="0 0 38 39" fill="none" xmlns="http://www.w3.org/2000/svg">
<path d="M19.2681 16.2014C14.2758 11.1659 8.80199 8.52303 7.04127 10.2993C6.84805 10.5031 6.70555 10.7508 6.62665 11.0221L6.59847 10.9937L4.91665 17.9459L3.24208 24.8771L1.25674 33.0841L0 38.2821L7.43979 35.4419L16.9028 31.8301L24.452 28.9485L24.4432 28.9396C24.696 28.8584 24.927 28.7203 25.1195 28.5359C26.8794 26.7597 24.2604 21.2377 19.2681 16.2014Z" fill="#DD1C4B"/>
<path d="M25.1185 28.5339C26.8792 26.7577 24.2596 21.2353 19.2675 16.1992C14.2754 11.1632 8.80125 8.5205 7.0406 10.2967C5.27995 12.0728 7.89954 17.5952 12.8916 22.6313C17.8837 27.6674 23.3579 30.31 25.1185 28.5339Z" fill="#D1E3EE"/>
<path d="M23.7661 29.1736C22.8644 29.1898 21.9708 29.0103 21.1431 28.6489L14.973 31.0042L5.50759 34.6128L0.431525 36.5498L0 38.335L7.43979 35.4948L16.9028 31.883L23.8305 29.2386L23.7661 29.1736Z" fill="#B21D48"/>
<path d="M31.5593 24.0404C31.482 24.0404 31.4055 24.0266 31.3331 23.9998C28.0636 22.7645 24.5293 22.4177 21.0843 22.9952L18.7834 23.3818C18.4316 23.4321 18.1047 23.1852 18.0548 22.8303C18.0065 22.4867 18.2335 22.1659 18.5709 22.1001L20.8718 21.7103C24.539 21.0955 28.3027 21.4642 31.7839 22.7791C32.1188 22.9001 32.2927 23.2729 32.172 23.61C32.081 23.8715 31.8338 24.0437 31.5593 24.0404Z" fill="#FFBF41"/>
<path d="M19.9661 20.142C19.6103 20.1395 19.3236 19.8471 19.3261 19.4882C19.3277 19.2404 19.4686 19.0155 19.6892 18.9075L33.2146 12.41C33.5358 12.2557 33.9198 12.393 34.0728 12.717C34.2258 13.0411 34.0897 13.4285 33.7685 13.5828L20.2431 20.0802C20.1561 20.1217 20.0619 20.1428 19.9661 20.142Z" fill="#FFBF41"/>
<path d="M12.4345 18.8424C12.35 18.8424 12.2655 18.8253 12.1874 18.792C11.8589 18.654 11.7035 18.2739 11.8412 17.9425L12.7775 15.6757C14.2186 12.2028 14.5543 8.36365 13.7388 4.68935C13.6551 4.34093 13.8676 3.98926 14.2138 3.9056C14.5592 3.82114 14.9078 4.03555 14.9907 4.38479C14.9923 4.39291 14.9939 4.40022 14.9955 4.40834C15.869 8.34416 15.5092 12.457 13.965 16.1768L13.0279 18.4436C12.9281 18.6848 12.6938 18.8424 12.4345 18.8424Z" fill="#FFBF41"/>
<path d="M34.7797 26.6395C35.4911 26.6395 36.0678 26.0577 36.0678 25.34C36.0678 24.6223 35.4911 24.0405 34.7797 24.0405C34.0683 24.0405 33.4916 24.6223 33.4916 25.34C33.4916 26.0577 34.0683 26.6395 34.7797 26.6395Z" fill="#D5557E"/>
<path d="M20.594 7.35531C20.708 6.64688 20.2311 5.97939 19.5288 5.86441C18.8266 5.74944 18.1649 6.23053 18.051 6.93896C17.937 7.64739 18.4139 8.31488 19.1161 8.42986C19.8184 8.54483 20.48 8.06374 20.594 7.35531Z" fill="#DD95C1"/>
<path d="M13.5254 2.59897C12.8137 2.59897 12.2373 2.01745 12.2373 1.29949C12.2373 0.58152 12.8137 0 13.5254 0C14.2371 0 14.8136 0.58152 14.8136 1.29949C14.8136 2.01745 14.2371 2.59897 13.5254 2.59897Z" fill="#7FCCCB"/>
<path d="M31.5594 5.19776C31.2035 5.19776 30.9153 4.907 30.9153 4.54802V3.89828C30.9153 3.5393 31.2035 3.24854 31.5594 3.24854C31.9152 3.24854 32.2034 3.5393 32.2034 3.89828V4.54802C32.2034 4.907 31.9152 5.19776 31.5594 5.19776Z" fill="#2276BB"/>
<path d="M31.5594 1.94923C31.2035 1.94923 30.9153 1.65847 30.9153 1.29949V0.649743C30.9153 0.29076 31.2035 0 31.5594 0C31.9152 0 32.2034 0.29076 32.2034 0.649743V1.29949C32.2034 1.65847 31.9152 1.94923 31.5594 1.94923Z" fill="#2276BB"/>
<path d="M33.4915 3.2487H32.8474C32.4916 3.2487 32.2034 2.95794 32.2034 2.59896C32.2034 2.23998 32.4916 1.94922 32.8474 1.94922H33.4915C33.8474 1.94922 34.1356 2.23998 34.1356 2.59896C34.1356 2.95794 33.8474 3.2487 33.4915 3.2487Z" fill="#2276BB"/>
<path d="M30.2712 3.2487H29.6271C29.2713 3.2487 28.983 2.95794 28.983 2.59896C28.983 2.23998 29.2713 1.94922 29.6271 1.94922H30.2712C30.627 1.94922 30.9152 2.23998 30.9152 2.59896C30.9152 2.95794 30.627 3.2487 30.2712 3.2487Z" fill="#2276BB"/>
<path d="M5.11235 18.8427C5.03989 18.5649 4.97549 18.2839 4.91591 17.998L3.24133 24.9292L3.37015 26.5137C3.65112 29.8924 5.08981 33.0664 7.43905 35.4916L16.902 31.883C16.8505 31.8668 16.7974 31.8554 16.7458 31.8376C11.0072 29.6666 6.67019 24.822 5.11235 18.8427Z" fill="white"/>
<path d="M16.902 31.8826C16.8505 31.8663 16.7973 31.855 16.7458 31.8371C16.1259 31.5999 15.5189 31.3311 14.9271 31.0298L6.40369 34.2826C6.72653 34.7057 7.07271 35.1102 7.43983 35.4943L16.902 31.8826Z" fill="#F6F6E7"/>
<path d="M27.0508 7.7832V11.0457H23.8168V7.7832H27.0508Z" fill="#C9DA53"/>
<path d="M15.4577 19.4923C15.1018 19.4923 14.8136 19.2016 14.8136 18.8426C14.8136 18.6582 14.8909 18.4828 15.0269 18.3601L21.4676 12.5125C21.7365 12.2777 22.1431 12.307 22.3758 12.5791C22.602 12.843 22.5811 13.2402 22.3291 13.4781L15.8884 19.3258C15.77 19.433 15.6171 19.4923 15.4577 19.4923Z" fill="#FFBF41"/>
<path d="M34.1356 16.8936C33.7798 16.8936 33.4916 16.6028 33.4916 16.2438V15.5941C33.4916 15.2351 33.7798 14.9443 34.1356 14.9443C34.4915 14.9443 34.7797 15.2351 34.7797 15.5941V16.2438C34.7797 16.6028 34.4915 16.8936 34.1356 16.8936Z" fill="#FFDB43"/>
<path d="M36.4131 15.9419C36.2425 15.9427 36.0782 15.8736 35.9575 15.7518L35.5018 15.2921C35.2546 15.0338 35.2619 14.6229 35.5179 14.3735C35.7675 14.1307 36.1636 14.1307 36.4131 14.3735L36.8688 14.8332C37.12 15.0866 37.12 15.4984 36.8688 15.7518C36.7473 15.8736 36.5838 15.9419 36.4131 15.9419Z" fill="#FFDB43"/>
<path d="M37.3559 13.6447H36.7118C36.356 13.6447 36.0677 13.3539 36.0677 12.995C36.0677 12.636 36.356 12.3452 36.7118 12.3452H37.3559C37.7117 12.3452 37.9999 12.636 37.9999 12.995C37.9999 13.3539 37.7117 13.6447 37.3559 13.6447Z" fill="#FFDB43"/>
<path d="M35.9575 11.8078C35.6017 11.8078 35.3135 11.517 35.3135 11.158C35.3135 10.9859 35.3811 10.821 35.5019 10.6992L35.9575 10.2395C36.2136 9.99013 36.6209 9.99743 36.8681 10.2557C37.1088 10.5075 37.1088 10.9071 36.8681 11.1589L36.4124 11.6185C36.2925 11.7387 36.1282 11.8078 35.9575 11.8078Z" fill="#FFDB43"/>
<path d="M34.1356 11.0454C33.7798 11.0454 33.4916 10.7547 33.4916 10.3957V9.74593C33.4916 9.38695 33.7798 9.09619 34.1356 9.09619C34.4915 9.09619 34.7797 9.38695 34.7797 9.74593V10.3957C34.7797 10.7547 34.4915 11.0454 34.1356 11.0454Z" fill="#FFDB43"/>
<path d="M32.3137 11.8076C32.143 11.8076 31.9787 11.7394 31.858 11.6175L31.4023 11.1578C31.1551 10.8996 31.1624 10.4886 31.4184 10.2393C31.668 9.99642 32.0641 9.99642 32.3137 10.2393L32.7693 10.699C33.0205 10.9524 33.0205 11.3641 32.7693 11.6175C32.6478 11.7385 32.4843 11.8076 32.3137 11.8076Z" fill="#FFDB43"/>
<path d="M3.22034 0.649902L4.21542 2.68441L6.44068 3.01009L4.83051 4.59384L5.21051 6.82977L3.22034 5.77394L1.23017 6.82977L1.61017 4.59384L0 3.01009L2.22525 2.6836L3.22034 0.649902Z" fill="#FFDB43"/>
<path d="M37.7963 35.1943C37.4903 34.0995 36.7843 33.1615 35.8214 32.5686L35.5557 32.1674C34.0679 29.9225 31.7283 28.3964 29.0885 27.9489C28.7366 27.8985 28.4098 28.1454 28.3599 28.5004C28.3116 28.8439 28.5386 29.1647 28.8759 29.2305C30.78 29.5562 32.5149 30.5324 33.791 31.9944C32.7178 32.1893 31.7799 32.839 31.2147 33.7795C30.5207 35.0327 30.9659 36.6157 32.2082 37.3158C33.4504 38.0159 35.0195 37.5667 35.7135 36.3135C35.9784 35.7978 36.1217 35.2268 36.1314 34.6453C36.8165 35.6492 36.8712 36.9608 36.2722 38.0191C36.0911 38.3277 36.1917 38.7265 36.4977 38.9092C36.8036 39.092 37.1989 38.9905 37.38 38.6818C37.3857 38.6721 37.3913 38.6623 37.3969 38.6518C37.983 37.5992 38.1264 36.3541 37.7963 35.1943ZM34.5912 35.6784C34.2475 36.307 33.4641 36.5353 32.841 36.1885C32.2178 35.8417 31.9916 35.0514 32.3354 34.4228C32.337 34.4195 32.3394 34.4155 32.341 34.4122C32.721 33.7844 33.3619 33.3637 34.0848 33.267C34.1967 33.2638 34.3078 33.2898 34.4069 33.3426C34.9511 33.6488 34.9801 34.9751 34.5912 35.6784Z" fill="#2BB3CE"/>
</svg>
