<svg width="48" height="48" viewBox="0 0 48 48" fill="none" xmlns="http://www.w3.org/2000/svg">
<path d="M28 4H12C9.8 4 8.02 5.8 8.02 8L8 40C8 42.2 9.78 44 11.98 44H36C38.2 44 40 42.2 40 40V16L28 4ZM32 36H16V32H32V36ZM32 28H16V24H32V28ZM26 18V7L37 18H26Z" fill="#D9D9D9"/>
<path d="M42.9999 4C40.2385 4 38 6.23847 38 8.9999C38 11.7613 40.2385 13.9998 42.9999 13.9998C45.7613 13.9998 47.9998 11.7613 47.9998 8.9999C47.9971 6.23973 45.7601 4.00293 42.9999 4ZM45.7525 7.46684L42.1811 11.0381C42.0417 11.1775 41.8155 11.1775 41.6761 11.0381L40.2475 9.60948C40.1056 9.47241 40.1016 9.24641 40.2387 9.10453C40.3758 8.96265 40.6018 8.95867 40.7436 9.09574C40.7466 9.09867 40.7495 9.1016 40.7524 9.10453L41.9285 10.2806L45.2474 6.96168C45.3892 6.82462 45.6153 6.82859 45.7523 6.97047C45.886 7.109 45.886 7.32831 45.7525 7.46684Z" fill="#7CB305"/>
</svg>
